<?xml version="1.0" encoding="UTF-8"?>
<svg version="1.1" viewBox="0 0 732.5 121.5" xml:space="preserve" xmlns="http://www.w3.org/2000/svg" xmlns:cc="http://creativecommons.org/ns#" xmlns:dc="http://purl.org/dc/elements/1.1/" xmlns:rdf="http://www.w3.org/1999/02/22-rdf-syntax-ns#"><title>RISC-V logo</title><metadata><rdf:RDF><cc:Work rdf:about=""><dc:format>image/svg+xml</dc:format><dc:type rdf:resource="http://purl.org/dc/dcmitype/StillImage"/><dc:title/></cc:Work></rdf:RDF></metadata><g transform="matrix(1.248 0 0 -1.25 -82.36 450)"><path d="m120.4 329.6c0-14.14-8.573-26.98-25.27-29.99l23.55-27.84 2.131 2.988 42.42 59.99v25.27h-68.96c17.55-1.714 26.12-16.27 26.12-30.41" fill="#f3ab0d"/><g fill="#283271"><path d="m132.4 267.1 31.27 43.69v-47.98h-34.4zm-60.38 45.41h16.27c11.98 0 17.99 8.556 17.99 17.13 0 8.578-6.008 16.71-17.99 16.71h-22.27v-83.54h41.56l-35.56 42.84v6.859"/><path d="m306.3 277.3h14.14v65.97h-14.14z"/><path d="m351.3 303.9c-5.585 0-10.29 1.714-14.14 5.563-3.85 3.866-6.002 8.573-6.002 14.14s2.152 10.29 6.002 14.14c3.845 3.85 8.551 6.002 14.14 6.002h74.11v-14.14h-74.11c-1.713 0-3.009-0.8568-4.289-1.714-1.296-0.8567-1.714-2.57-1.714-4.289 0-1.713 0.8567-2.988 1.714-4.289 0.862-1.274 2.576-1.713 4.289-1.713h53.96c5.563 0 10.29-2.131 14.14-5.981 3.85-3.871 6.002-8.578 6.002-14.14s-2.153-10.29-6.002-14.14c-3.85-3.85-8.578-6.002-14.14-6.002h-74.1v14.58h74.1c1.719 0 3.015 0.8567 4.289 1.719 1.274 0.8567 1.714 2.549 1.714 4.262 0 1.719-0.8567 3.015-1.714 4.289-0.8567 1.296-2.57 1.719-4.289 1.719h-53.96"/><path d="m465.2 343.3h61.26v-14.14h-61.26c-5.124 0-9.413-1.692-13.28-5.563-3.85-3.85-5.563-8.134-5.563-13.28 0-5.124 1.713-9.413 5.563-13.28 3.871-3.845 8.16-5.563 13.28-5.563h61.26v-14.14h-61.26c-8.996 0-16.7 3.009-23.14 9.429-6.42 6.425-9.413 14.14-9.413 23.14 0 8.99 2.993 16.71 9.413 23.13 6.442 6.838 14.14 10.27 23.14 10.27"/><path d="m296 277.3-18.85 26.14c5.124 0.423 9.413 2.136 12.85 5.986 3.85 3.866 6.002 8.573 6.002 14.14s-2.152 10.29-6.002 14.14-8.578 6.002-14.14 6.002h-74.11v-65.97h14.14v25.7h43.69l18.85-26.14zm-80.11 51.83h59.97c1.719 0 3.015-0.8567 4.289-1.692 1.274-0.8567 1.714-2.576 1.714-4.289 0-1.714-0.8567-3.009-1.714-4.289-0.8567-1.296-2.57-1.714-4.289-1.714h-59.97v11.98"/></g><path d="m597.2 277.3-38.55 65.97h16.27l30.41-52.25 30.41 52.25h16.29l-38.57-65.97" fill="#f3ab0d"/><path d="m535.1 303.9h27.84v12.86h-27.84z" fill="#f3ab0d"/></g></svg>
